{
 "cells": [
  {
   "cell_type": "code",
   "execution_count": 2,
   "metadata": {},
   "outputs": [
    {
     "data": {
      "text/plain": [
       "<message note_on channel=2 note=60 velocity=64 time=0>"
      ]
     },
     "execution_count": 2,
     "metadata": {},
     "output_type": "execute_result"
    }
   ],
   "source": [
    "import mido\n",
    "msg = mido.Message('note_on', note=60)\n",
    "msg.type\n",
    "msg.note\n",
    "msg.bytes()\n",
    "msg.copy(channel=2)"
   ]
  },
  {
   "cell_type": "code",
   "execution_count": 17,
   "metadata": {
    "scrolled": true
   },
   "outputs": [
    {
     "ename": "OSError",
     "evalue": "MThd not found. Probably not a MIDI file",
     "output_type": "error",
     "traceback": [
      "\u001b[1;31m---------------------------------------------------------------------------\u001b[0m",
      "\u001b[1;31mOSError\u001b[0m                                   Traceback (most recent call last)",
      "\u001b[1;32m<ipython-input-17-66785a43e6d6>\u001b[0m in \u001b[0;36m<module>\u001b[1;34m()\u001b[0m\n\u001b[1;32m----> 1\u001b[1;33m \u001b[0mmid\u001b[0m \u001b[1;33m=\u001b[0m \u001b[0mmido\u001b[0m\u001b[1;33m.\u001b[0m\u001b[0mMidiFile\u001b[0m\u001b[1;33m(\u001b[0m\u001b[1;34m'ExtraitsMidi/une-souris-verte.mid'\u001b[0m\u001b[1;33m)\u001b[0m\u001b[1;33m\u001b[0m\u001b[0m\n\u001b[0m",
      "\u001b[1;32m~\\Anaconda3\\lib\\site-packages\\mido\\midifiles\\midifiles.py\u001b[0m in \u001b[0;36m__init__\u001b[1;34m(self, filename, file, type, ticks_per_beat, charset, debug, clip)\u001b[0m\n\u001b[0;32m    314\u001b[0m         \u001b[1;32melif\u001b[0m \u001b[0mself\u001b[0m\u001b[1;33m.\u001b[0m\u001b[0mfilename\u001b[0m \u001b[1;32mis\u001b[0m \u001b[1;32mnot\u001b[0m \u001b[1;32mNone\u001b[0m\u001b[1;33m:\u001b[0m\u001b[1;33m\u001b[0m\u001b[0m\n\u001b[0;32m    315\u001b[0m             \u001b[1;32mwith\u001b[0m \u001b[0mio\u001b[0m\u001b[1;33m.\u001b[0m\u001b[0mopen\u001b[0m\u001b[1;33m(\u001b[0m\u001b[0mfilename\u001b[0m\u001b[1;33m,\u001b[0m \u001b[1;34m'rb'\u001b[0m\u001b[1;33m)\u001b[0m \u001b[1;32mas\u001b[0m \u001b[0mfile\u001b[0m\u001b[1;33m:\u001b[0m\u001b[1;33m\u001b[0m\u001b[0m\n\u001b[1;32m--> 316\u001b[1;33m                 \u001b[0mself\u001b[0m\u001b[1;33m.\u001b[0m\u001b[0m_load\u001b[0m\u001b[1;33m(\u001b[0m\u001b[0mfile\u001b[0m\u001b[1;33m)\u001b[0m\u001b[1;33m\u001b[0m\u001b[0m\n\u001b[0m\u001b[0;32m    317\u001b[0m \u001b[1;33m\u001b[0m\u001b[0m\n\u001b[0;32m    318\u001b[0m     \u001b[1;32mdef\u001b[0m \u001b[0madd_track\u001b[0m\u001b[1;33m(\u001b[0m\u001b[0mself\u001b[0m\u001b[1;33m,\u001b[0m \u001b[0mname\u001b[0m\u001b[1;33m=\u001b[0m\u001b[1;32mNone\u001b[0m\u001b[1;33m)\u001b[0m\u001b[1;33m:\u001b[0m\u001b[1;33m\u001b[0m\u001b[0m\n",
      "\u001b[1;32m~\\Anaconda3\\lib\\site-packages\\mido\\midifiles\\midifiles.py\u001b[0m in \u001b[0;36m_load\u001b[1;34m(self, infile)\u001b[0m\n\u001b[0;32m    338\u001b[0m             (self.type,\n\u001b[0;32m    339\u001b[0m              \u001b[0mnum_tracks\u001b[0m\u001b[1;33m,\u001b[0m\u001b[1;33m\u001b[0m\u001b[0m\n\u001b[1;32m--> 340\u001b[1;33m              self.ticks_per_beat) = read_file_header(infile)\n\u001b[0m\u001b[0;32m    341\u001b[0m \u001b[1;33m\u001b[0m\u001b[0m\n\u001b[0;32m    342\u001b[0m             \u001b[1;32mif\u001b[0m \u001b[0mself\u001b[0m\u001b[1;33m.\u001b[0m\u001b[0mdebug\u001b[0m\u001b[1;33m:\u001b[0m\u001b[1;33m\u001b[0m\u001b[0m\n",
      "\u001b[1;32m~\\Anaconda3\\lib\\site-packages\\mido\\midifiles\\midifiles.py\u001b[0m in \u001b[0;36mread_file_header\u001b[1;34m(infile)\u001b[0m\n\u001b[0;32m    109\u001b[0m \u001b[1;33m\u001b[0m\u001b[0m\n\u001b[0;32m    110\u001b[0m     \u001b[1;32mif\u001b[0m \u001b[0mname\u001b[0m \u001b[1;33m!=\u001b[0m \u001b[1;34mb'MThd'\u001b[0m\u001b[1;33m:\u001b[0m\u001b[1;33m\u001b[0m\u001b[0m\n\u001b[1;32m--> 111\u001b[1;33m         \u001b[1;32mraise\u001b[0m \u001b[0mIOError\u001b[0m\u001b[1;33m(\u001b[0m\u001b[1;34m'MThd not found. Probably not a MIDI file'\u001b[0m\u001b[1;33m)\u001b[0m\u001b[1;33m\u001b[0m\u001b[0m\n\u001b[0m\u001b[0;32m    112\u001b[0m     \u001b[1;32melse\u001b[0m\u001b[1;33m:\u001b[0m\u001b[1;33m\u001b[0m\u001b[0m\n\u001b[0;32m    113\u001b[0m         \u001b[0mdata\u001b[0m \u001b[1;33m=\u001b[0m \u001b[0minfile\u001b[0m\u001b[1;33m.\u001b[0m\u001b[0mread\u001b[0m\u001b[1;33m(\u001b[0m\u001b[0msize\u001b[0m\u001b[1;33m)\u001b[0m\u001b[1;33m\u001b[0m\u001b[0m\n",
      "\u001b[1;31mOSError\u001b[0m: MThd not found. Probably not a MIDI file"
     ]
    }
   ],
   "source": [
    "mid = mido.MidiFile('ExtraitsMidi/une-souris-verte.mid')"
   ]
  },
  {
   "cell_type": "code",
   "execution_count": 16,
   "metadata": {},
   "outputs": [
    {
     "name": "stdout",
     "output_type": "stream",
     "text": [
      "<meta message time_signature numerator=4 denominator=4 clocks_per_click=24 notated_32nd_notes_per_beat=8 time=0>\n",
      "<meta message key_signature key='C' time=0>\n",
      "<meta message set_tempo tempo=500000 time=0>\n",
      "program_change channel=1 program=73 time=0\n",
      "control_change channel=1 control=121 value=0 time=0\n",
      "control_change channel=1 control=64 value=0 time=0\n",
      "control_change channel=1 control=91 value=52 time=0\n",
      "control_change channel=1 control=10 value=70 time=0\n",
      "control_change channel=1 control=7 value=121 time=0\n",
      "<meta message track_name name='Flute' time=0>\n",
      "note_on channel=1 note=72 velocity=89 time=0\n",
      "program_change channel=0 program=0 time=0\n",
      "control_change channel=0 control=121 value=0 time=0\n",
      "control_change channel=0 control=64 value=0 time=0\n",
      "control_change channel=0 control=91 value=48 time=0\n",
      "control_change channel=0 control=10 value=51 time=0\n",
      "control_change channel=0 control=7 value=80 time=0\n",
      "control_change channel=0 control=121 value=0 time=0\n",
      "control_change channel=0 control=64 value=0 time=0\n",
      "control_change channel=0 control=91 value=48 time=0\n",
      "control_change channel=0 control=10 value=51 time=0\n",
      "control_change channel=0 control=7 value=80 time=0\n",
      "<meta message track_name name='Piano' time=0>\n",
      "note_on channel=0 note=60 velocity=84 time=0\n",
      "note_off channel=1 note=72 velocity=0 time=0.5\n",
      "note_on channel=1 note=72 velocity=92 time=0\n",
      "note_off channel=0 note=60 velocity=0 time=0\n",
      "note_on channel=0 note=64 velocity=90 time=0\n",
      "note_on channel=0 note=67 velocity=90 time=0\n",
      "note_on channel=0 note=72 velocity=90 time=0\n",
      "note_off channel=1 note=72 velocity=0 time=0.5\n",
      "note_on channel=1 note=72 velocity=101 time=0\n",
      "note_off channel=0 note=64 velocity=0 time=0\n",
      "note_off channel=0 note=67 velocity=0 time=0\n",
      "note_off channel=0 note=72 velocity=0 time=0\n",
      "note_on channel=0 note=55 velocity=86 time=0\n",
      "note_off channel=1 note=72 velocity=0 time=0.5\n",
      "note_on channel=1 note=74 velocity=103 time=0\n",
      "note_off channel=0 note=55 velocity=0 time=0\n",
      "note_on channel=0 note=67 velocity=88 time=0\n",
      "note_on channel=0 note=71 velocity=88 time=0\n",
      "note_off channel=1 note=74 velocity=0 time=0.5\n",
      "note_on channel=1 note=76 velocity=105 time=0\n",
      "note_off channel=0 note=67 velocity=0 time=0\n",
      "note_off channel=0 note=71 velocity=0 time=0\n",
      "note_on channel=0 note=60 velocity=81 time=0\n",
      "note_off channel=0 note=60 velocity=0 time=0.5\n",
      "note_on channel=0 note=64 velocity=83 time=0\n",
      "note_on channel=0 note=72 velocity=83 time=0\n",
      "note_off channel=1 note=76 velocity=0 time=0.5\n",
      "note_on channel=1 note=74 velocity=92 time=0\n",
      "note_off channel=0 note=64 velocity=0 time=0\n",
      "note_off channel=0 note=72 velocity=0 time=0\n",
      "note_on channel=0 note=55 velocity=90 time=0\n",
      "note_off channel=0 note=55 velocity=0 time=0.5\n",
      "note_on channel=0 note=67 velocity=87 time=0\n",
      "note_on channel=0 note=71 velocity=87 time=0\n",
      "note_off channel=1 note=74 velocity=0 time=0.5\n",
      "note_on channel=1 note=72 velocity=89 time=0\n",
      "note_off channel=0 note=67 velocity=0 time=0\n",
      "note_off channel=0 note=71 velocity=0 time=0\n",
      "note_on channel=0 note=57 velocity=91 time=0\n",
      "note_off channel=1 note=72 velocity=0 time=0.5\n",
      "note_on channel=1 note=76 velocity=103 time=0\n",
      "note_on channel=0 note=69 velocity=86 time=0\n",
      "note_on channel=0 note=72 velocity=86 time=0\n",
      "note_off channel=1 note=76 velocity=0 time=0.5\n",
      "note_on channel=1 note=74 velocity=97 time=0\n",
      "note_off channel=0 note=69 velocity=0 time=0\n",
      "note_off channel=0 note=72 velocity=0 time=0\n",
      "note_off channel=0 note=57 velocity=0 time=0\n",
      "note_on channel=0 note=55 velocity=96 time=0\n",
      "note_off channel=1 note=74 velocity=0 time=0.5\n",
      "note_on channel=1 note=74 velocity=94 time=0\n",
      "note_on channel=0 note=62 velocity=88 time=0\n",
      "note_on channel=0 note=65 velocity=88 time=0\n",
      "note_on channel=0 note=67 velocity=88 time=0\n",
      "note_off channel=1 note=74 velocity=0 time=0.5\n",
      "note_on channel=1 note=72 velocity=90 time=0\n",
      "note_off channel=0 note=62 velocity=0 time=0\n",
      "note_off channel=0 note=65 velocity=0 time=0\n",
      "note_off channel=0 note=67 velocity=0 time=0\n",
      "note_off channel=0 note=55 velocity=0 time=0\n",
      "note_on channel=0 note=60 velocity=114 time=0\n",
      "note_off channel=0 note=60 velocity=0 time=0.5\n",
      "note_on channel=0 note=64 velocity=85 time=0\n",
      "note_on channel=0 note=67 velocity=85 time=0\n",
      "note_on channel=0 note=72 velocity=85 time=0\n",
      "note_on channel=0 note=59 velocity=98 time=0\n",
      "note_off channel=0 note=59 velocity=0 time=0.5\n",
      "note_on channel=0 note=57 velocity=95 time=0\n",
      "note_off channel=0 note=57 velocity=0 time=0.5\n",
      "note_on channel=0 note=55 velocity=95 time=0\n",
      "note_off channel=1 note=72 velocity=0 time=0.25\n",
      "note_on channel=1 note=72 velocity=98 time=0.25\n",
      "note_off channel=0 note=64 velocity=0 time=0\n",
      "note_off channel=0 note=67 velocity=0 time=0\n",
      "note_off channel=0 note=72 velocity=0 time=0\n",
      "note_off channel=0 note=55 velocity=0 time=0\n",
      "note_on channel=0 note=60 velocity=110 time=0\n",
      "note_off channel=1 note=72 velocity=0 time=0.5\n",
      "note_on channel=1 note=72 velocity=100 time=0\n",
      "note_off channel=0 note=60 velocity=0 time=0\n",
      "note_on channel=0 note=64 velocity=89 time=0\n",
      "note_on channel=0 note=72 velocity=89 time=0\n",
      "note_off channel=1 note=72 velocity=0 time=0.5\n",
      "note_on channel=1 note=72 velocity=106 time=0\n",
      "note_off channel=0 note=64 velocity=0 time=0\n",
      "note_off channel=0 note=72 velocity=0 time=0\n",
      "note_on channel=0 note=55 velocity=90 time=0\n",
      "note_off channel=1 note=72 velocity=0 time=0.5\n",
      "note_on channel=1 note=74 velocity=106 time=0\n",
      "note_off channel=0 note=55 velocity=0 time=0\n",
      "note_on channel=0 note=67 velocity=86 time=0\n",
      "note_on channel=0 note=71 velocity=86 time=0\n",
      "note_off channel=1 note=74 velocity=0 time=0.5\n",
      "note_on channel=1 note=76 velocity=106 time=0\n",
      "note_off channel=0 note=67 velocity=0 time=0\n",
      "note_off channel=0 note=71 velocity=0 time=0\n",
      "note_on channel=0 note=60 velocity=93 time=0\n",
      "note_off channel=0 note=60 velocity=0 time=0.5\n",
      "note_on channel=0 note=64 velocity=89 time=0\n",
      "note_on channel=0 note=72 velocity=89 time=0\n",
      "note_off channel=1 note=76 velocity=0 time=0.5\n",
      "note_on channel=1 note=74 velocity=92 time=0\n",
      "note_off channel=0 note=64 velocity=0 time=0\n",
      "note_off channel=0 note=72 velocity=0 time=0\n",
      "note_on channel=0 note=55 velocity=94 time=0\n",
      "note_off channel=0 note=55 velocity=0 time=0.5\n",
      "note_on channel=0 note=67 velocity=89 time=0\n",
      "note_on channel=0 note=71 velocity=89 time=0\n",
      "note_off channel=1 note=74 velocity=0 time=0.5\n",
      "note_on channel=1 note=72 velocity=91 time=0\n",
      "note_off channel=0 note=67 velocity=0 time=0\n",
      "note_off channel=0 note=71 velocity=0 time=0\n",
      "note_on channel=0 note=57 velocity=93 time=0\n",
      "note_off channel=1 note=72 velocity=0 time=0.5\n",
      "note_on channel=1 note=76 velocity=106 time=0\n",
      "note_on channel=0 note=69 velocity=88 time=0\n",
      "note_on channel=0 note=72 velocity=88 time=0\n",
      "note_off channel=1 note=76 velocity=0 time=0.5\n",
      "note_on channel=1 note=74 velocity=94 time=0\n",
      "note_off channel=0 note=69 velocity=0 time=0\n",
      "note_off channel=0 note=72 velocity=0 time=0\n",
      "note_off channel=0 note=57 velocity=0 time=0\n",
      "note_on channel=0 note=55 velocity=94 time=0\n",
      "note_off channel=1 note=74 velocity=0 time=0.5\n",
      "note_on channel=1 note=74 velocity=94 time=0\n",
      "note_on channel=0 note=62 velocity=89 time=0\n",
      "note_on channel=0 note=65 velocity=89 time=0\n",
      "note_on channel=0 note=67 velocity=89 time=0\n",
      "note_off channel=1 note=74 velocity=0 time=0.5\n",
      "note_on channel=1 note=72 velocity=90 time=0\n",
      "note_off channel=0 note=62 velocity=0 time=0\n",
      "note_off channel=0 note=65 velocity=0 time=0\n",
      "note_off channel=0 note=67 velocity=0 time=0\n",
      "note_off channel=0 note=55 velocity=0 time=0\n",
      "note_on channel=0 note=60 velocity=110 time=0\n",
      "note_off channel=0 note=60 velocity=0 time=0.5\n",
      "note_on channel=0 note=55 velocity=95 time=0\n",
      "note_off channel=0 note=55 velocity=0 time=0.5\n",
      "note_on channel=0 note=64 velocity=90 time=0\n",
      "note_on channel=0 note=67 velocity=90 time=0\n",
      "note_on channel=0 note=72 velocity=90 time=0\n",
      "note_on channel=0 note=48 velocity=91 time=0\n",
      "note_off channel=1 note=72 velocity=0 time=0.75\n",
      "note_on channel=1 note=74 velocity=110 time=0.25\n",
      "note_off channel=0 note=64 velocity=0 time=0\n",
      "note_off channel=0 note=67 velocity=0 time=0\n",
      "note_off channel=0 note=72 velocity=0 time=0\n",
      "note_off channel=0 note=48 velocity=0 time=0\n",
      "note_on channel=0 note=62 velocity=123 time=0\n",
      "note_off channel=1 note=74 velocity=0 time=0.5\n",
      "note_on channel=1 note=74 velocity=102 time=0\n",
      "note_off channel=0 note=62 velocity=0 time=0\n",
      "note_on channel=0 note=65 velocity=87 time=0\n",
      "note_on channel=0 note=69 velocity=87 time=0\n",
      "note_off channel=1 note=74 velocity=0 time=0.5\n",
      "note_on channel=1 note=74 velocity=94 time=0\n",
      "note_off channel=0 note=65 velocity=0 time=0\n",
      "note_off channel=0 note=69 velocity=0 time=0\n",
      "note_on channel=0 note=57 velocity=87 time=0\n",
      "note_off channel=1 note=74 velocity=0 time=0.5\n",
      "note_on channel=1 note=74 velocity=95 time=0\n",
      "note_off channel=0 note=57 velocity=0 time=0\n",
      "note_on channel=0 note=65 velocity=90 time=0\n",
      "note_on channel=0 note=69 velocity=90 time=0\n",
      "note_off channel=1 note=74 velocity=0 time=0.5\n",
      "note_on channel=1 note=69 velocity=81 time=0\n",
      "note_off channel=0 note=65 velocity=0 time=0\n",
      "note_off channel=0 note=69 velocity=0 time=0\n",
      "note_on channel=0 note=53 velocity=87 time=0\n",
      "note_off channel=0 note=53 velocity=0 time=0.5\n",
      "note_on channel=0 note=65 velocity=85 time=0\n",
      "note_on channel=0 note=69 velocity=85 time=0\n",
      "note_off channel=1 note=69 velocity=0 time=0.5\n",
      "note_on channel=1 note=69 velocity=99 time=0\n",
      "note_off channel=0 note=65 velocity=0 time=0\n",
      "note_off channel=0 note=69 velocity=0 time=0\n",
      "note_on channel=0 note=57 velocity=87 time=0\n",
      "note_off channel=0 note=57 velocity=0 time=0.5\n",
      "note_on channel=0 note=65 velocity=89 time=0\n",
      "note_on channel=0 note=69 velocity=89 time=0\n",
      "note_off channel=1 note=69 velocity=0 time=0.5\n",
      "note_on channel=1 note=74 velocity=112 time=0\n",
      "note_off channel=0 note=65 velocity=0 time=0\n",
      "note_off channel=0 note=69 velocity=0 time=0\n",
      "note_on channel=0 note=62 velocity=84 time=0\n",
      "note_off channel=1 note=74 velocity=0 time=0.5\n",
      "note_on channel=1 note=72 velocity=96 time=0\n",
      "note_off channel=0 note=62 velocity=0 time=0\n",
      "note_on channel=0 note=66 velocity=88 time=0\n",
      "note_on channel=0 note=69 velocity=88 time=0\n",
      "note_off channel=1 note=72 velocity=0 time=0.5\n",
      "note_on channel=1 note=71 velocity=96 time=0\n",
      "note_off channel=0 note=66 velocity=0 time=0\n",
      "note_off channel=0 note=69 velocity=0 time=0\n",
      "note_on channel=0 note=50 velocity=88 time=0\n",
      "note_off channel=1 note=71 velocity=0 time=0.5\n",
      "note_on channel=1 note=69 velocity=91 time=0\n",
      "note_off channel=0 note=50 velocity=0 time=0\n",
      "note_on channel=0 note=66 velocity=87 time=0\n",
      "note_on channel=0 note=69 velocity=87 time=0\n",
      "note_off channel=1 note=69 velocity=0 time=0.5\n",
      "note_on channel=1 note=67 velocity=93 time=0\n",
      "note_off channel=0 note=66 velocity=0 time=0\n",
      "note_off channel=0 note=69 velocity=0 time=0\n",
      "note_on channel=0 note=55 velocity=86 time=0\n",
      "note_off channel=0 note=55 velocity=0 time=0.5\n",
      "note_on channel=0 note=62 velocity=90 time=0\n",
      "note_on channel=0 note=65 velocity=90 time=0\n",
      "note_on channel=0 note=71 velocity=90 time=0\n",
      "note_on channel=0 note=53 velocity=87 time=0\n",
      "note_off channel=0 note=53 velocity=0 time=0.5\n",
      "note_on channel=0 note=52 velocity=96 time=0\n",
      "note_off channel=0 note=62 velocity=0 time=0.5\n",
      "note_off channel=0 note=65 velocity=0 time=0\n",
      "note_off channel=0 note=71 velocity=0 time=0\n",
      "note_off channel=0 note=52 velocity=0 time=0\n",
      "note_on channel=0 note=62 velocity=96 time=0\n",
      "note_on channel=0 note=65 velocity=96 time=0\n",
      "note_on channel=0 note=71 velocity=96 time=0\n",
      "note_on channel=0 note=50 velocity=97 time=0\n",
      "note_off channel=1 note=67 velocity=0 time=0.25\n",
      "note_on channel=1 note=72 velocity=108 time=0.25\n",
      "note_off channel=0 note=62 velocity=0 time=0\n",
      "note_off channel=0 note=65 velocity=0 time=0\n",
      "note_off channel=0 note=71 velocity=0 time=0\n",
      "note_off channel=0 note=50 velocity=0 time=0\n",
      "note_on channel=0 note=48 velocity=101 time=0\n",
      "note_off channel=1 note=72 velocity=0 time=0.5\n",
      "note_on channel=1 note=72 velocity=106 time=0\n",
      "note_off channel=0 note=48 velocity=0 time=0\n",
      "note_on channel=0 note=64 velocity=87 time=0\n",
      "note_on channel=0 note=72 velocity=87 time=0\n",
      "note_off channel=1 note=72 velocity=0 time=0.5\n",
      "note_on channel=1 note=72 velocity=95 time=0\n",
      "note_off channel=0 note=64 velocity=0 time=0\n",
      "note_off channel=0 note=72 velocity=0 time=0\n",
      "note_on channel=0 note=55 velocity=92 time=0\n",
      "note_off channel=1 note=72 velocity=0 time=0.5\n",
      "note_on channel=1 note=74 velocity=103 time=0\n",
      "note_off channel=0 note=55 velocity=0 time=0\n",
      "note_on channel=0 note=67 velocity=88 time=0\n",
      "note_on channel=0 note=71 velocity=88 time=0\n",
      "note_off channel=1 note=74 velocity=0 time=0.5\n",
      "note_on channel=1 note=76 velocity=103 time=0\n",
      "note_off channel=0 note=67 velocity=0 time=0\n",
      "note_off channel=0 note=71 velocity=0 time=0\n",
      "note_on channel=0 note=60 velocity=88 time=0\n",
      "note_off channel=0 note=60 velocity=0 time=0.5\n",
      "note_on channel=0 note=64 velocity=89 time=0\n",
      "note_on channel=0 note=72 velocity=89 time=0\n",
      "note_off channel=1 note=76 velocity=0 time=0.5\n",
      "note_on channel=1 note=74 velocity=94 time=0\n",
      "note_off channel=0 note=64 velocity=0 time=0\n",
      "note_off channel=0 note=72 velocity=0 time=0\n",
      "note_on channel=0 note=55 velocity=82 time=0\n",
      "note_off channel=0 note=55 velocity=0 time=0.5\n",
      "note_on channel=0 note=67 velocity=88 time=0\n",
      "note_on channel=0 note=71 velocity=88 time=0\n",
      "note_off channel=1 note=74 velocity=0 time=0.5\n",
      "note_on channel=1 note=72 velocity=88 time=0\n",
      "note_off channel=0 note=67 velocity=0 time=0\n",
      "note_off channel=0 note=71 velocity=0 time=0\n",
      "note_on channel=0 note=57 velocity=88 time=0\n",
      "note_off channel=1 note=72 velocity=0 time=0.5\n",
      "note_on channel=1 note=76 velocity=108 time=0\n",
      "note_on channel=0 note=69 velocity=89 time=0\n",
      "note_on channel=0 note=72 velocity=89 time=0\n",
      "note_off channel=1 note=76 velocity=0 time=0.5\n",
      "note_on channel=1 note=74 velocity=98 time=0\n",
      "note_off channel=0 note=69 velocity=0 time=0\n",
      "note_off channel=0 note=72 velocity=0 time=0\n",
      "note_off channel=0 note=57 velocity=0 time=0\n",
      "note_on channel=0 note=55 velocity=91 time=0\n",
      "note_off channel=1 note=74 velocity=0 time=0.5\n",
      "note_on channel=1 note=74 velocity=96 time=0\n",
      "note_on channel=0 note=65 velocity=91 time=0\n",
      "note_on channel=0 note=67 velocity=91 time=0\n",
      "note_on channel=0 note=71 velocity=91 time=0\n",
      "note_off channel=1 note=74 velocity=0 time=0.5\n",
      "note_on channel=1 note=72 velocity=93 time=0\n",
      "note_off channel=0 note=65 velocity=0 time=0\n",
      "note_off channel=0 note=67 velocity=0 time=0\n",
      "note_off channel=0 note=71 velocity=0 time=0\n",
      "note_off channel=0 note=55 velocity=0 time=0\n",
      "note_on channel=0 note=60 velocity=108 time=0\n",
      "note_off channel=0 note=60 velocity=0 time=0.5\n",
      "note_on channel=0 note=64 velocity=86 time=0\n",
      "note_on channel=0 note=67 velocity=86 time=0\n",
      "note_on channel=0 note=72 velocity=86 time=0\n",
      "note_on channel=0 note=55 velocity=91 time=0\n",
      "note_off channel=0 note=64 velocity=0 time=0.5\n",
      "note_off channel=0 note=67 velocity=0 time=0\n",
      "note_off channel=0 note=72 velocity=0 time=0\n",
      "note_off channel=0 note=55 velocity=0 time=0\n",
      "note_on channel=0 note=64 velocity=97 time=0\n",
      "note_on channel=0 note=67 velocity=97 time=0\n",
      "note_on channel=0 note=72 velocity=97 time=0\n",
      "note_on channel=0 note=48 velocity=88 time=0\n",
      "note_off channel=1 note=72 velocity=0 time=0.5\n",
      "note_off channel=0 note=64 velocity=0 time=0\n",
      "note_off channel=0 note=67 velocity=0 time=0\n",
      "note_off channel=0 note=72 velocity=0 time=0\n",
      "note_off channel=0 note=48 velocity=0 time=0\n",
      "<meta message end_of_track time=0.0005208333333333333>\n"
     ]
    }
   ],
   "source": [
    "for msg in mid :\n",
    "    print(msg)"
   ]
  },
  {
   "cell_type": "code",
   "execution_count": null,
   "metadata": {},
   "outputs": [],
   "source": []
  }
 ],
 "metadata": {
  "kernelspec": {
   "display_name": "Python 3",
   "language": "python",
   "name": "python3"
  },
  "language_info": {
   "codemirror_mode": {
    "name": "ipython",
    "version": 3
   },
   "file_extension": ".py",
   "mimetype": "text/x-python",
   "name": "python",
   "nbconvert_exporter": "python",
   "pygments_lexer": "ipython3",
   "version": "3.6.5"
  }
 },
 "nbformat": 4,
 "nbformat_minor": 2
}
